<svg id="Layer_1" data-name="Layer 1" xmlns="http://www.w3.org/2000/svg" viewBox="0 0 1026.27 321.82"><defs><style>.cls-1{fill:#090f27;}.cls-2{fill:#231f20;}</style></defs><path class="cls-1" d="M216.67,109.72V180.1a2,2,0,0,1-3.49,1.45L142.8,111.16a2,2,0,0,1,1.44-3.49h70.38A2.05,2.05,0,0,1,216.67,109.72Z"/><path class="cls-1" d="M271.36,59.53V262.29a6.55,6.55,0,0,1-6.55,6.55H62.05a6.55,6.55,0,0,1-6.55-6.55V59.53A6.55,6.55,0,0,1,62.05,53H264.81A6.55,6.55,0,0,1,271.36,59.53ZM88.08,167a5,5,0,0,0-3.54,8.55l64.22,64.21a5,5,0,0,0,8.54-3.54V172.05a5,5,0,0,0-5-5Zm1.55-86.5A6.55,6.55,0,0,0,85,91.73l73.8,73.81,73.81,73.8a6.55,6.55,0,0,0,11.19-4.63V87.1a6.56,6.56,0,0,0-6.56-6.56Z"/><path class="cls-2" d="M334.07,203.7l-35-84.29h22.77l25.29,65.17h1.26l24.91-65.17H396L361,203.7Z"/><path class="cls-2" d="M385.37,172.25c0-20.13,14.22-32.84,35-32.84s34.35,10.82,34.35,30.57a47.16,47.16,0,0,1-.5,6H402.86c.5,9.69,5,13.84,17.23,13.84,11.2,0,15.1-2.89,15.1-8.3V180.3h18.87v1.38c0,13.72-13.33,23.28-33.34,23.28C399.71,205,385.37,194.64,385.37,172.25Zm17.74-6.17h33.46c-.5-8.3-5.53-12-16.6-12S404,157.9,403.11,166.08Z"/><path class="cls-2" d="M462.74,203.7v-63h17.49V157.4h1.13c1.77-10.19,8.43-18,21.14-18,14.09,0,19.88,9.69,19.88,22v10.44H503.51v-6.54c0-6.92-2.77-9.94-10.45-9.94-8.42,0-11.44,3.9-11.44,11.82V203.7Z"/><path class="cls-2" d="M529.17,134.25V119.41h18.88v14.84Zm0,69.45v-63h18.88v63Z"/><path class="cls-2" d="M563,203.7V156.27h-8.94v-15.6h9.31c2-12.71,13.09-21.26,32.46-21.26h5.54v13.71h-8.56c-8.3,0-12.2,1.38-11.7,7.55h43.29v15.6H581.89V203.7Zm44.66-69.45V119.41h18.87v14.84Zm0,69.45v-63h18.87v63Z"/><path class="cls-2" d="M634.6,172.25c0-20.13,14.22-32.84,35-32.84s34.34,10.82,34.34,30.57a47.16,47.16,0,0,1-.5,6H652.09c.5,9.69,5,13.84,17.24,13.84,11.19,0,15.09-2.89,15.09-8.3V180.3H703.3v1.38C703.3,195.4,690,205,670,205,649,205,634.6,194.64,634.6,172.25Zm17.74-6.17h33.47c-.51-8.3-5.54-12-16.61-12S653.22,157.9,652.34,166.08Z"/><path class="cls-2" d="M709.71,172.25c0-20.13,10.7-32.84,29.44-32.84,15,0,22.65,7.42,24.79,18h1.13v-38h18.87V203.7H766.33V186.21h-1C762.93,198.67,754.63,205,740.16,205,720.53,205,709.71,192.12,709.71,172.25Zm36.87,15.47c11.95,0,18.49-4.15,18.49-15.1v-1c0-11-6.42-15-18.49-15s-17.74,4-17.74,15.6S734.5,187.72,746.58,187.72Z"/><path class="cls-2" d="M811.62,175.27v-.76h18.87v2.27c0,7.8,3.9,10.94,21,10.94,15.1,0,18.62-2.26,18.62-7.92,0-5.16-2.89-7.05-11.57-8.56l-23.65-3.4c-15.1-2.39-24-9.94-24-23.65,0-12.71,10.31-26,38.62-26,25.92,0,38,11.95,38,29.69v.75h-19v-1.76c0-8.05-4.16-11.45-20.89-11.45-13.59,0-17.74,2.65-17.74,8.06,0,4.9,2.77,6.66,9.82,7.92l23.65,3.78c18.87,3,25.66,12.2,25.66,23.77C889,192.63,878.3,205,851.5,205,826,205,811.62,194.89,811.62,175.27Z"/><path class="cls-2" d="M896.67,225.09V140.67h17.49V157.9h1.26c2.26-12.07,10.31-18.49,25.16-18.49,19.37,0,30.19,12.83,30.19,32.84S960.2,205,941.21,205c-14.6,0-22.65-7.17-24.79-18.25h-.88v38.38Zm37.24-37.37c12.08,0,17.74-4,17.74-15.47S946,156.77,934,156.77c-12.21,0-18.5,4.15-18.5,15.35v1C915.54,184,922.08,187.72,933.91,187.72Z"/></svg>